<?xml version="1.0" encoding="UTF-8"?>
<svg xmlns="http://www.w3.org/2000/svg" xmlns:xlink="http://www.w3.org/1999/xlink" width="810pt" height="809.999993pt" viewBox="0 0 810 809.999993" version="1.2">
<defs>
<clipPath id="clip1">
  <path d="M 243 227.835938 L 567 227.835938 L 567 551.835938 L 243 551.835938 Z M 243 227.835938 "/>
</clipPath>
</defs>
<g id="surface1">
<rect x="0" y="0" width="810" height="809.999993" style="fill:rgb(100%,100%,100%);fill-opacity:1;stroke:none;"/>
<rect x="0" y="0" width="810" height="809.999993" style="fill:rgb(100%,100%,100%);fill-opacity:1;stroke:none;"/>
<rect x="0" y="0" width="810" height="809.999993" style="fill:rgb(100%,100%,100%);fill-opacity:1;stroke:none;"/>
<g clip-path="url(#clip1)" clip-rule="nonzero">
<path style=" stroke:none;fill-rule:nonzero;fill:rgb(0%,0%,0%);fill-opacity:1;" d="M 243 227.835938 L 567 227.835938 L 567 551.835938 L 243 551.835938 Z M 243 227.835938 "/>
</g>
<path style=" stroke:none;fill-rule:nonzero;fill:rgb(100%,100%,100%);fill-opacity:1;" d="M 289.285156 274.121094 L 335.570312 274.121094 L 335.570312 320.40625 L 289.285156 320.40625 Z M 289.285156 274.121094 "/>
<path style=" stroke:none;fill-rule:nonzero;fill:rgb(0%,0%,0%);fill-opacity:1;" d="M 335.570312 274.121094 L 381.855469 274.121094 L 381.855469 320.40625 L 335.570312 320.40625 Z M 335.570312 274.121094 "/>
<path style=" stroke:none;fill-rule:nonzero;fill:rgb(100%,100%,100%);fill-opacity:1;" d="M 381.855469 274.121094 L 428.144531 274.121094 L 428.144531 320.40625 L 381.855469 320.40625 Z M 381.855469 274.121094 "/>
<path style=" stroke:none;fill-rule:nonzero;fill:rgb(0%,0%,0%);fill-opacity:1;" d="M 428.144531 274.121094 L 474.429688 274.121094 L 474.429688 320.40625 L 428.144531 320.40625 Z M 428.144531 274.121094 "/>
<path style=" stroke:none;fill-rule:nonzero;fill:rgb(0%,0%,0%);fill-opacity:1;" d="M 474.429688 274.121094 L 520.714844 274.121094 L 520.714844 320.40625 L 474.429688 320.40625 Z M 474.429688 274.121094 "/>
<path style=" stroke:none;fill-rule:nonzero;fill:rgb(0%,0%,0%);fill-opacity:1;" d="M 289.285156 320.40625 L 335.570312 320.40625 L 335.570312 366.691406 L 289.285156 366.691406 Z M 289.285156 320.40625 "/>
<path style=" stroke:none;fill-rule:nonzero;fill:rgb(100%,100%,100%);fill-opacity:1;" d="M 335.570312 320.40625 L 381.855469 320.40625 L 381.855469 366.691406 L 335.570312 366.691406 Z M 335.570312 320.40625 "/>
<path style=" stroke:none;fill-rule:nonzero;fill:rgb(0%,0%,0%);fill-opacity:1;" d="M 381.855469 320.40625 L 428.144531 320.40625 L 428.144531 366.691406 L 381.855469 366.691406 Z M 381.855469 320.40625 "/>
<path style=" stroke:none;fill-rule:nonzero;fill:rgb(100%,100%,100%);fill-opacity:1;" d="M 428.144531 320.40625 L 474.429688 320.40625 L 474.429688 366.691406 L 428.144531 366.691406 Z M 428.144531 320.40625 "/>
<path style=" stroke:none;fill-rule:nonzero;fill:rgb(100%,100%,100%);fill-opacity:1;" d="M 474.429688 320.40625 L 520.714844 320.40625 L 520.714844 366.691406 L 474.429688 366.691406 Z M 474.429688 320.40625 "/>
<path style=" stroke:none;fill-rule:nonzero;fill:rgb(0%,0%,0%);fill-opacity:1;" d="M 289.285156 366.691406 L 335.570312 366.691406 L 335.570312 412.980469 L 289.285156 412.980469 Z M 289.285156 366.691406 "/>
<path style=" stroke:none;fill-rule:nonzero;fill:rgb(100%,100%,100%);fill-opacity:1;" d="M 335.570312 366.691406 L 381.855469 366.691406 L 381.855469 412.980469 L 335.570312 412.980469 Z M 335.570312 366.691406 "/>
<path style=" stroke:none;fill-rule:nonzero;fill:rgb(100%,100%,100%);fill-opacity:1;" d="M 381.855469 366.691406 L 428.144531 366.691406 L 428.144531 412.980469 L 381.855469 412.980469 Z M 381.855469 366.691406 "/>
<path style=" stroke:none;fill-rule:nonzero;fill:rgb(0%,0%,0%);fill-opacity:1;" d="M 428.144531 366.691406 L 474.429688 366.691406 L 474.429688 412.980469 L 428.144531 412.980469 Z M 428.144531 366.691406 "/>
<path style=" stroke:none;fill-rule:nonzero;fill:rgb(0%,0%,0%);fill-opacity:1;" d="M 474.429688 366.691406 L 520.714844 366.691406 L 520.714844 412.980469 L 474.429688 412.980469 Z M 474.429688 366.691406 "/>
<path style=" stroke:none;fill-rule:nonzero;fill:rgb(100%,100%,100%);fill-opacity:1;" d="M 289.285156 412.980469 L 335.570312 412.980469 L 335.570312 459.265625 L 289.285156 459.265625 Z M 289.285156 412.980469 "/>
<path style=" stroke:none;fill-rule:nonzero;fill:rgb(0%,0%,0%);fill-opacity:1;" d="M 335.570312 412.980469 L 381.855469 412.980469 L 381.855469 459.265625 L 335.570312 459.265625 Z M 335.570312 412.980469 "/>
<path style=" stroke:none;fill-rule:nonzero;fill:rgb(100%,100%,100%);fill-opacity:1;" d="M 381.855469 412.980469 L 428.144531 412.980469 L 428.144531 459.265625 L 381.855469 459.265625 Z M 381.855469 412.980469 "/>
<path style=" stroke:none;fill-rule:nonzero;fill:rgb(0%,0%,0%);fill-opacity:1;" d="M 428.144531 412.980469 L 474.429688 412.980469 L 474.429688 459.265625 L 428.144531 459.265625 Z M 428.144531 412.980469 "/>
<path style=" stroke:none;fill-rule:nonzero;fill:rgb(100%,100%,100%);fill-opacity:1;" d="M 474.429688 412.980469 L 520.714844 412.980469 L 520.714844 459.265625 L 474.429688 459.265625 Z M 474.429688 412.980469 "/>
<path style=" stroke:none;fill-rule:nonzero;fill:rgb(100%,100%,100%);fill-opacity:1;" d="M 289.285156 459.265625 L 335.570312 459.265625 L 335.570312 505.550781 L 289.285156 505.550781 Z M 289.285156 459.265625 "/>
<path style=" stroke:none;fill-rule:nonzero;fill:rgb(100%,100%,100%);fill-opacity:1;" d="M 335.570312 459.265625 L 381.855469 459.265625 L 381.855469 505.550781 L 335.570312 505.550781 Z M 335.570312 459.265625 "/>
<path style=" stroke:none;fill-rule:nonzero;fill:rgb(100%,100%,100%);fill-opacity:1;" d="M 381.855469 459.265625 L 428.144531 459.265625 L 428.144531 505.550781 L 381.855469 505.550781 Z M 381.855469 459.265625 "/>
<path style=" stroke:none;fill-rule:nonzero;fill:rgb(0%,0%,0%);fill-opacity:1;" d="M 428.144531 459.265625 L 474.429688 459.265625 L 474.429688 505.550781 L 428.144531 505.550781 Z M 428.144531 459.265625 "/>
<path style=" stroke:none;fill-rule:nonzero;fill:rgb(0%,0%,0%);fill-opacity:1;" d="M 474.429688 459.265625 L 520.714844 459.265625 L 520.714844 505.550781 L 474.429688 505.550781 Z M 474.429688 459.265625 "/>
</g>
</svg>
